<svg width="22" height="20" viewBox="0 0 22 20" fill="none" xmlns="http://www.w3.org/2000/svg">
<path fill-rule="evenodd" clip-rule="evenodd" d="M20.2619 6.98533C20.1931 8.19784 19.7784 9.32961 19.0863 10.1841C18.9726 10.3447 18.864 10.4743 18.7453 10.5943L11.027 17.4855L3.34086 10.6035C3.27532 10.5375 3.21619 10.466 3.15524 10.3945C3.08695 10.3128 3.01774 10.2312 2.96136 10.1762C1.37921 8.13509 1.55292 5.20255 3.36469 3.35656C4.31939 2.39504 5.63571 1.84322 6.97586 1.84322C8.1226 1.84322 9.25376 2.23632 10.1631 2.95054C10.4275 3.1577 10.7589 3.28135 11.0499 3.28135C11.3749 3.28135 11.6582 3.17569 11.9419 2.94731C12.8035 2.2354 13.9338 1.84322 15.1245 1.84322C16.4844 1.84322 17.7668 2.38073 18.7357 3.35656C19.7041 4.33146 20.2605 5.65378 20.2619 6.98533ZM19.9897 1.99963L19.9883 1.99779C18.7004 0.725293 16.9551 0 15.19 0C13.6808 0.00322968 12.254 0.436929 11.0279 1.31402C9.85234 0.465996 8.41227 0.000461382 6.95203 0.000461382C5.08022 0.000461382 3.32757 0.7276 2.01629 2.04669C-0.467394 4.54738 -0.686016 8.53742 1.5245 11.3472C1.56254 11.386 1.59921 11.4441 1.65192 11.5207L1.75642 11.6522C1.84396 11.7634 1.93654 11.8792 2.04975 11.9932L11.0275 20L19.9897 11.9369C20.1872 11.738 20.3581 11.5166 20.5213 11.3053C21.4746 10.1061 21.9994 8.57387 21.9994 6.99456C22.0233 5.1015 21.3092 3.32795 19.9897 1.99963Z" fill="black"/>
</svg>
