<svg width="24" height="24" viewBox="0 0 24 24" fill="none" xmlns="http://www.w3.org/2000/svg">
<mask id="mask0_527_117" style="mask-type:alpha" maskUnits="userSpaceOnUse" x="0" y="0" width="24" height="24">
<path fill-rule="evenodd" clip-rule="evenodd" d="M21.2619 8.98533C21.1931 10.1978 20.7784 11.3296 20.0863 12.1841C19.9726 12.3447 19.864 12.4743 19.7453 12.5943L12.027 19.4855L4.34086 12.6035C4.27532 12.5375 4.21619 12.466 4.15524 12.3945C4.08695 12.3128 4.01774 12.2312 3.96136 12.1762C2.37921 10.1351 2.55292 7.20255 4.36469 5.35656C5.31939 4.39504 6.63571 3.84322 7.97586 3.84322C9.1226 3.84322 10.2538 4.23632 11.1631 4.95054C11.4275 5.1577 11.7589 5.28135 12.0499 5.28135C12.3749 5.28135 12.6582 5.17569 12.9419 4.94731C13.8035 4.2354 14.9338 3.84322 16.1245 3.84322C17.4844 3.84322 18.7668 4.38073 19.7357 5.35656C20.7041 6.33146 21.2605 7.65378 21.2619 8.98533ZM20.9897 3.99963L20.9883 3.99779C19.7004 2.72529 17.9551 2 16.19 2C14.6808 2.00323 13.254 2.43693 12.0279 3.31402C10.8523 2.466 9.41227 2.00046 7.95203 2.00046C6.08022 2.00046 4.32757 2.7276 3.01629 4.04669C0.532606 6.54738 0.313984 10.5374 2.5245 13.3472C2.56254 13.386 2.59921 13.4441 2.65192 13.5207L2.75642 13.6522C2.84396 13.7634 2.93654 13.8792 3.04975 13.9932L12.0275 22L20.9897 13.9369C21.1872 13.738 21.3581 13.5166 21.5213 13.3053C22.4746 12.1061 22.9994 10.5739 22.9994 8.99456C23.0233 7.1015 22.3092 5.32795 20.9897 3.99963Z" fill="black"/>
</mask>
<g mask="url(#mask0_527_117)">
<rect width="24" height="24" fill="#8D8D8D"/>
</g>
</svg>
