<svg width="22" height="20" viewBox="0 0 22 20" fill="none" xmlns="http://www.w3.org/2000/svg">
<path fill-rule="evenodd" clip-rule="evenodd" d="M19.9897 1.99963L19.9883 1.99779C18.7004 0.725293 16.9551 0 15.19 0C13.6808 0.00322968 12.254 0.436929 11.0279 1.31402C9.85234 0.465996 8.41227 0.000461382 6.95203 0.000461382C5.08022 0.000461382 3.32757 0.7276 2.01629 2.04669C-0.467394 4.54738 -0.686016 8.53742 1.5245 11.3472C1.56254 11.386 1.59921 11.4441 1.65192 11.5207L1.75642 11.6522C1.84396 11.7634 1.93654 11.8792 2.04975 11.9932L11.0275 20L19.9897 11.9369C20.1872 11.738 20.3581 11.5166 20.5213 11.3053C21.4746 10.1061 21.9994 8.57387 21.9994 6.99456C22.0233 5.1015 21.3092 3.32795 19.9897 1.99963Z" fill="black"/>
</svg>
