<svg width="24" height="26" viewBox="0 0 24 26" fill="none" xmlns="http://www.w3.org/2000/svg">
<path fill-rule="evenodd" clip-rule="evenodd" d="M22.3068 10.4793H20.6834V9.26836H11.2381V1.55908H8.0421V9.26836H8.03602V10.4793H6.97251V12.1762H1.59448V16.7091H4.77868V19.8692H6.38957V21.3833H8.03602V24.8094H20.6834V21.3833H22.2993V17.8304H22.3068V10.4793Z" fill="white"/>
<path fill-rule="evenodd" clip-rule="evenodd" d="M7.97197 -6.10352e-05V1.52536H6.43105V12.1762H4.80975V13.6757H6.43105V15.2265H8.02546V13.6757V12.1762V1.52536H11.1877V-6.10352e-05H7.97197Z" fill="black"/>
<path fill-rule="evenodd" clip-rule="evenodd" d="M19.1331 9.12603V7.62605H12.7821V1.52545H11.1877V10.6506H12.7821V9.1512H16.0238V10.6506H17.6185V9.1512H19.1331V10.6506V12.176H20.7278V10.6506H22.3222V9.12603H19.1331Z" fill="black"/>
<path fill-rule="evenodd" clip-rule="evenodd" d="M22.3223 18.3272H23.9167V10.6506H22.3223V18.3272Z" fill="black"/>
<path fill-rule="evenodd" clip-rule="evenodd" d="M20.6746 18.3274V21.378H19.1331V24.4283H9.57961V22.8774H8.0254V24.4283H7.99908V25.9537H19.1331H20.7278V21.378H22.269V18.3274H20.6746Z" fill="black"/>
<path fill-rule="evenodd" clip-rule="evenodd" d="M6.43115 22.8775H8.02585V21.3781H6.43115V22.8775Z" fill="black"/>
<path fill-rule="evenodd" clip-rule="evenodd" d="M4.83673 21.3781H6.43114V19.8527H4.83673V21.3781Z" fill="black"/>
<path fill-rule="evenodd" clip-rule="evenodd" d="M1.59442 16.8021H3.24175V15.2266H1.59442V16.8021Z" fill="black"/>
<path fill-rule="evenodd" clip-rule="evenodd" d="M3.242 19.8526H4.83699V16.8021H3.242V19.8526Z" fill="black"/>
<path fill-rule="evenodd" clip-rule="evenodd" d="M0 15.2266H1.59441V12.176H0V15.2266Z" fill="black"/>
<path fill-rule="evenodd" clip-rule="evenodd" d="M1.59442 12.1763H4.78266V10.6506H1.59442V12.1763Z" fill="black"/>
<path fill-rule="evenodd" clip-rule="evenodd" d="M11.1877 19.7766H12.7822V15.6332H11.1877V19.7766Z" fill="black"/>
<path fill-rule="evenodd" clip-rule="evenodd" d="M14.3503 19.7766H15.945V15.6332H14.3503V19.7766Z" fill="black"/>
<path fill-rule="evenodd" clip-rule="evenodd" d="M17.5385 19.7766H19.1332V16.726H17.5385V19.7766Z" fill="black"/>
</svg>
